<svg width="10" height="10" viewBox="0 0 10 10" fill="none" xmlns="http://www.w3.org/2000/svg">
<path d="M0.972655 8.36719C0.765624 8.17969 0.710936 8.01562 0.808593 7.875L1.11328 7.43555C1.21875 7.2832 1.38867 7.29492 1.62305 7.4707C1.93164 7.70117 2.25195 7.89062 2.58398 8.03906C2.91992 8.1875 3.32617 8.26172 3.80273 8.26172C4.1543 8.26172 4.45117 8.20898 4.69336 8.10352C4.93555 7.99805 5.12891 7.84766 5.27344 7.65234C5.42187 7.45312 5.49609 7.21289 5.49609 6.93164C5.49609 6.72852 5.46484 6.54102 5.40234 6.36914C5.34375 6.19336 5.24805 6.04688 5.11523 5.92969C4.98242 5.8125 4.84375 5.7207 4.69922 5.6543C4.46094 5.54492 4.10351 5.41797 3.62695 5.27344C3.1543 5.12891 2.74023 4.97266 2.38476 4.80469C2.0332 4.63672 1.75195 4.43359 1.54101 4.19531C1.33398 3.95703 1.19531 3.71289 1.125 3.46289C1.05859 3.20898 1.02539 2.91992 1.02539 2.5957C1.02539 2.09961 1.16992 1.67188 1.45898 1.3125C1.74805 0.953125 2.10156 0.714844 2.51953 0.597656C2.94141 0.480469 3.36914 0.421875 3.80273 0.421875C4.29883 0.421875 4.73047 0.486328 5.09766 0.615234C5.46484 0.744141 5.79297 0.912109 6.08203 1.11914C6.28516 1.26367 6.33203 1.41602 6.22266 1.57617L5.92383 2.00391C5.83398 2.13281 5.6582 2.10547 5.39648 1.92188C5.19726 1.78125 4.95312 1.65039 4.66406 1.5293C4.37891 1.4043 4.0957 1.3418 3.81445 1.3418C3.45508 1.3418 3.15625 1.38477 2.91797 1.4707C2.67969 1.55273 2.49219 1.69336 2.35547 1.89258C2.21875 2.0918 2.15039 2.32227 2.15039 2.58398C2.15039 2.74805 2.16601 2.90039 2.19726 3.04102C2.22851 3.17773 2.30859 3.31836 2.4375 3.46289C2.56641 3.60742 2.72266 3.71875 2.90625 3.79688C3.15234 3.90234 3.5332 4.02734 4.04883 4.17188C4.56836 4.3125 5.02148 4.48633 5.4082 4.69336C5.76758 4.88477 6.02539 5.08594 6.18164 5.29688C6.3418 5.50391 6.46484 5.73047 6.55078 5.97656C6.64062 6.21875 6.68555 6.49219 6.68555 6.79688C6.68555 7.35156 6.54297 7.81445 6.25781 8.18555C5.97266 8.55664 5.63476 8.81445 5.24414 8.95898C4.85351 9.10352 4.36328 9.17578 3.77344 9.17578C3.06641 9.17578 2.48047 9.09375 2.01562 8.92969C1.55078 8.76562 1.20312 8.57812 0.972655 8.36719Z" fill="white"/>
<path d="M8 7.5C8 7.22386 8.22386 7 8.5 7H9.5C9.77614 7 10 7.22386 10 7.5V8.5C10 8.77614 9.77614 9 9.5 9H8.5C8.22386 9 8 8.77614 8 8.5V7.5Z" fill="#D9D9D9"/>
</svg>
