<svg width="11" height="8" viewBox="0 0 11 8" fill="none" xmlns="http://www.w3.org/2000/svg">
<path d="M1.38867 2.28516C1.24414 2.28516 1.08008 2.22852 0.896484 2.11523C0.716797 1.99805 0.626953 1.84766 0.626953 1.66406C0.626953 1.47656 0.679688 1.30078 0.785156 1.13672C0.890625 0.972656 1.02734 0.839844 1.19531 0.738281C1.36328 0.632812 1.55859 0.544922 1.78125 0.474609C2.1875 0.345703 2.625 0.28125 3.09375 0.28125C3.88281 0.28125 4.45508 0.457031 4.81055 0.808594C5.16992 1.15625 5.34961 1.73242 5.34961 2.53711L5.34375 4.26562C5.34375 4.68359 5.39648 4.94531 5.50195 5.05078C5.5293 5.07812 5.61523 5.11328 5.75977 5.15625C6.1582 5.28125 6.35742 5.37695 6.35742 5.44336C6.35742 5.85352 5.9375 6.05859 5.09766 6.05859C4.78125 6.05859 4.57422 5.98828 4.47656 5.84766C4.38281 5.70703 4.33203 5.45117 4.32422 5.08008C4.14844 5.39648 3.88086 5.65234 3.52148 5.84766C3.16211 6.04297 2.77734 6.14062 2.36719 6.14062C1.95703 6.14062 1.60938 6.08789 1.32422 5.98242C1.03906 5.87695 0.806641 5.70703 0.626953 5.47266C0.451172 5.23438 0.363281 4.97852 0.363281 4.70508C0.363281 4.43164 0.394531 4.21289 0.457031 4.04883C0.519531 3.88086 0.597656 3.74023 0.691406 3.62695C0.785156 3.51367 0.912109 3.41211 1.07227 3.32227C1.23633 3.23242 1.38867 3.16211 1.5293 3.11133C1.66992 3.05664 1.85156 3.00781 2.07422 2.96484C2.40234 2.90234 2.67773 2.85938 2.90039 2.83594C3.12305 2.80859 3.23828 2.79297 3.24609 2.78906C3.26953 2.78516 3.40234 2.77148 3.64453 2.74805C3.89062 2.7207 4.08398 2.66797 4.22461 2.58984C4.22461 1.84766 4.125 1.36328 3.92578 1.13672C3.75 0.941406 3.46094 0.84375 3.05859 0.84375C2.65625 0.84375 2.35352 0.947266 2.15039 1.1543C1.95117 1.35742 1.85156 1.68164 1.85156 2.12695L1.85742 2.25586C1.69336 2.27539 1.53711 2.28516 1.38867 2.28516ZM4.22461 3.11719C3.95898 3.21484 3.6582 3.2832 3.32227 3.32227C2.99023 3.35742 2.72852 3.40039 2.53711 3.45117C2.3457 3.50195 2.18555 3.56445 2.05664 3.63867C1.75977 3.81055 1.61133 4.10547 1.61133 4.52344C1.61133 5.19531 2.00195 5.53125 2.7832 5.53125C3.45898 5.53125 3.88672 5.20898 4.06641 4.56445C4.17188 4.19727 4.22461 3.71484 4.22461 3.11719Z" fill="white"/>
<path d="M11 6C11 7.10457 10.1046 8 9 8C7.89543 8 7 7.10457 7 6C7 4.89543 7.89543 4 9 4C10.1046 4 11 4.89543 11 6Z" fill="#000C7B"/>
</svg>
